# xmcd
#
# Track frame offsets:
#	150
#	27327
#	50060
#	72350
#	92900
#	116600
#	136400
#	161962
#	176262
#	196015
#	210115
#	225680
#	236850
#	244475
#
# Disc length: 3472 seconds
#
# Revision: 1
# Processed by: cddbd v1.5.1PL0 Copyright (c) Steve Scherf et al.
# Submitted via: CDex 1.50Beta5
#
DISCID=c60d8e0e
DTITLE=Erik Satie - サティ曲集
DYEAR=1900
DGENRE=Classical
TTITLE0=ラインベルト・デ・レーウ/ジムノペディ第1番
TTITLE1=ラインベルト・デ・レーウ/ジムノペディ第2番
TTITLE2=ラインベルト・デ・レーウ/ジムノペディ第3番
TTITLE3=パスカル・ロジェ/天国の英雄的な門への前奏曲
TTITLE4=パスカル・ロジェ/お前が欲しい
TTITLE5=パスカル・ロジェ/官能的なソナチネ
TTITLE6=ラインベルト・デ・レーウ/グノシエンヌ第1番
TTITLE7=ラインベルト・デ・レーウ/グノシエンヌ第2番
TTITLE8=ラインベルト・デ・レーウ/グノシエンヌ第3番
TTITLE9=ラインベルト・デ・レーウ/グノシエンヌ第4番
TTITLE10=ラインベルト・デ・レーウ/グノシエンヌ第5番
TTITLE11=ラインベルト・デ・レーウ/グノシエンヌ第6番
TTITLE12=パスカル・ロジェ/ピカデリー
TTITLE13=モントリオール交響楽団/ジムノペディ第1番
EXTD=
EXTT0=
EXTT1=
EXTT2=
EXTT3=
EXTT4=
EXTT5=
EXTT6=
EXTT7=
EXTT8=
EXTT9=
EXTT10=
EXTT11=
EXTT12=
EXTT13=
PLAYORDER=
